<?xml version="1.0" ?>
<!-- Uploaded to: SVG Repo, www.svgrepo.com, Generator: SVG Repo Mixer Tools -->
<svg width="800px" height="800px" viewBox="0 0 74.667328 74.667328" id="svg2" version="1.1" xmlns="http://www.w3.org/2000/svg" xmlns:svg="http://www.w3.org/2000/svg">
<defs id="defs6">
<clipPath clipPathUnits="userSpaceOnUse" id="clipPath74">
<path d="M 0,64 H 64 V 0 H 0 Z" id="path72"/>
</clipPath>
</defs>
<g id="g66" transform="matrix(1.3333333,0,0,-1.3333333,-5.3326665,80.000131)">
<g id="g68">
<g clip-path="url(#clipPath74)" id="g70">
<g id="g76" transform="translate(14.0103,21.2222)">
<path d="m 0,0 h 12.076 c 0.097,-0.03 0.197,-0.051 0.299,-0.051 0.1,0 0.2,0.02 0.297,0.051 h 9.231 L 16.058,-10.125 C 9.234,-9.498 3.362,-5.589 0,0 M -0.348,20.984 5.701,10.506 C 5.742,10.326 5.84,10.168 5.974,10.033 L 10.612,2 H -1.062 C -2.3,4.675 -3.01,7.642 -3.01,10.778 c 0,3.704 0.972,7.181 2.662,10.206 M 17.66,31.761 11.61,21.284 C 11.475,21.159 11.388,20.995 11.338,20.812 L 6.699,12.778 0.863,22.888 c 3.747,5.284 9.865,8.764 16.797,8.873 M 35.979,21.556 h -12.08 c -0.177,0.054 -0.363,0.048 -0.547,0 h -9.275 l 5.845,10.124 c 6.824,-0.626 12.696,-4.535 16.057,-10.124 m 0.349,-20.983 -6.05,10.478 c -0.041,0.178 -0.139,0.336 -0.272,0.47 l -4.638,8.035 H 37.042 C 38.28,16.88 38.99,13.914 38.99,10.778 38.99,7.074 38.017,3.597 36.328,0.573 M 28.052,10.778 23.021,2.063 H 12.958 l -5.031,8.715 5.031,8.714 H 23.021 Z M 18.32,-10.206 24.369,0.271 c 0.135,0.126 0.224,0.29 0.273,0.474 l 4.638,8.033 5.837,-10.11 C 31.37,-6.616 25.251,-10.097 18.32,-10.206 m 18.761,8.17 c 0.03,0.037 0.05,0.078 0.075,0.118 2.42,3.641 3.834,8.006 3.834,12.696 0,3.636 -0.852,7.076 -2.361,10.136 -0.012,0.032 -0.031,0.06 -0.046,0.091 -3.554,7.127 -10.698,12.159 -19.049,12.715 -0.03,0.005 -0.058,0.005 -0.087,0.007 -0.483,0.03 -0.968,0.051 -1.457,0.051 C 10.047,33.778 3.033,29.73 -1.101,23.59 -1.13,23.555 -1.15,23.516 -1.174,23.477 -3.595,19.835 -5.01,15.469 -5.01,10.778 c 0,-3.636 0.851,-7.076 2.36,-10.136 0.013,-0.033 0.031,-0.06 0.047,-0.092 3.561,-7.14 10.724,-12.177 19.095,-12.718 0.036,-0.004 0.072,-0.014 0.109,-0.014 0.009,0 0.018,0.003 0.027,0.003 0.451,-0.026 0.905,-0.043 1.362,-0.043 7.942,0 14.956,4.047 19.091,10.186" id="path78" style="fill:#231f20;fill-opacity:1;fill-rule:nonzero;stroke:none"/>
</g>
<g id="g80" transform="translate(5,45.1431)">
<path d="m 0,0 c 0.552,0 1,0.448 1,1 v 8.857 c 0,1.654 1.346,3 3,3 h 8.938 c 0.552,0 1,0.448 1,1 0,0.552 -0.448,1 -1,1 H 4 c -2.757,0 -5,-2.243 -5,-5 V 1 C -1,0.448 -0.552,0 0,0" id="path82" style="fill:#231f20;fill-opacity:1;fill-rule:nonzero;stroke:none"/>
</g>
<g id="g84" transform="translate(55,60)">
<path d="m 0,0 h -8.938 c -0.552,0 -1,-0.448 -1,-1 0,-0.552 0.448,-1 1,-1 H 0 c 1.654,0 3,-1.346 3,-3 v -8.857 c 0,-0.552 0.447,-1 1,-1 0.553,0 1,0.448 1,1 V -5 C 5,-2.243 2.757,0 0,0" id="path86" style="fill:#231f20;fill-opacity:1;fill-rule:nonzero;stroke:none"/>
</g>
<g id="g88" transform="translate(17.9375,6)">
<path d="m 0,0 h -8.938 c -1.654,0 -3,1.346 -3,3 v 8.857 c 0,0.552 -0.447,1 -1,1 -0.552,0 -1,-0.448 -1,-1 V 3 c 0,-2.757 2.244,-5 5,-5 H 0 c 0.552,0 1,0.448 1,1 0,0.552 -0.448,1 -1,1" id="path90" style="fill:#231f20;fill-opacity:1;fill-rule:nonzero;stroke:none"/>
</g>
<g id="g92" transform="translate(59,18.8569)">
<path d="m 0,0 c -0.553,0 -1,-0.448 -1,-1 v -8.857 c 0,-1.654 -1.346,-3 -3,-3 h -8.938 c -0.552,0 -1,-0.448 -1,-1 0,-0.552 0.448,-1 1,-1 H -4 c 2.757,0 5,2.243 5,5 V -1 C 1,-0.448 0.553,0 0,0" id="path94" style="fill:#231f20;fill-opacity:1;fill-rule:nonzero;stroke:none"/>
</g>
<g id="g96" transform="translate(32,36.0327)">
<path d="m 0,0 h 0.007 v -0.006 c 0,-1.662 1.351,-3.014 3.013,-3.014 0.168,0 0.334,0.019 0.499,0.046 0.052,0.009 0.103,0.023 0.155,0.034 0.065,0.015 0.132,0.024 0.195,0.043 0.109,-0.366 0.163,-0.746 0.163,-1.136 0,-2.223 -1.808,-4.032 -4.032,-4.032 -2.224,0 -4.033,1.809 -4.033,4.032 C -4.033,-1.809 -2.224,0 0,0 m 3.02,1.006 c 0.558,0 1.012,-0.454 1.012,-1.012 0,-0.288 -0.122,-0.559 -0.358,-0.762 C 3.494,-0.933 3.268,-1.02 3.02,-1.02 c -0.559,0 -1.013,0.455 -1.013,1.014 0,0.144 0.034,0.293 0.097,0.432 0.167,0.353 0.526,0.58 0.916,0.58 M 0,-10.065 c 3.326,0 6.032,2.706 6.032,6.032 0,0.823 -0.175,1.636 -0.502,2.39 0.317,0.481 0.502,1.044 0.502,1.637 0,1.661 -1.351,3.012 -3.012,3.012 C 2.134,3.006 1.304,2.61 0.738,1.954 0.496,1.984 0.25,2 0,2 c -3.327,0 -6.033,-2.706 -6.033,-6.033 0,-3.326 2.706,-6.032 6.033,-6.032" id="path98" style="fill:#231f20;fill-opacity:1;fill-rule:nonzero;stroke:none"/>
</g>
</g>
</g>
</g>
</svg>