<?xml version="1.0" encoding="utf-8"?>
<!-- Uploaded to: SVG Repo, www.svgrepo.com, Generator: SVG Repo Mixer Tools -->
<svg width="800px" height="800px" viewBox="0 0 1024 1024" class="icon"  version="1.1" xmlns="http://www.w3.org/2000/svg"><path d="M512.531396 95.397443c-230.148943 0-416.644536 186.528357-416.644535 416.677301 0 230.082391 186.494569 416.6773 416.644535 416.6773 230.21652 0 416.743853-186.594909 416.743853-416.6773 0.001024-230.148943-186.527333-416.6773-416.743853-416.677301z" fill="#27323A" /><path d="M512.531396 878.751628c-202.151823 0-366.643096-164.524037-366.643095-366.67586 0-202.218376 164.491273-366.67586 366.643095-366.675861 202.218376 0 366.743437 164.457485 366.743437 366.675861 0 202.150799-164.524037 366.67586-366.743437 366.67586z" fill="#F4CE73" /><path d="M671.455805 295.143136c-32.684467-27.737053-63.545395-53.975139-65.821492-76.50164-0.066553-0.260067-0.326619-0.3901-0.3901-0.583614-1.10682-8.139888-7.813269-14.454189-16.214248-14.45419-9.180156 0-16.666805 7.486649-16.666806 16.666806v338.615259c-24.673589-21.487257-61.132097-34.051354-103.712416-34.051354-18.880445 0-38.08751 2.537188-57.097989 7.616682-51.171741 13.669893-94.728846 44.46734-116.669685 82.359288-14.713232 25.456861-18.880445 52.21508-12.110516 77.345322 13.023821 49.091206 66.928312 82.099221 134.053211 82.09922 18.946998 0 38.154063-2.60374 57.164541-7.683235 41.731518-11.133729 78.062041-33.204601 102.345529-62.111955 19.920713-23.696802 29.754108-49.804854 29.297455-75.391749 0-0.130033 0.063481-0.260067 0.063481-0.3901V428.413074c16.993425-11.590382 33.85784-12.043963 52.541699 0 43.164958 27.733982 75.001648 107.816149 67.514999 135.093477-0.066553 0.196586 0.130033 0.393172 0.066552 0.586687-1.630025 6.899963 1.040267 14.324156 7.48665 18.163725 2.667221 1.563473 5.596557 2.343674 8.526917 2.343674a16.719023 16.719023 0 0 0 14.324155-8.136817c82.815941-139.19721-13.996512-221.359912-84.701937-281.320684z" fill="#27323A" /><path d="M550.816517 683.043115c-19.923785 23.696802-50.264578 41.928104-85.418658 51.368327-16.214248 4.297247-32.554434 6.509863-48.571072 6.509863-51.82498 0-92.775273-23.047659-101.888876-57.358056-4.363799-16.470219-1.366887-34.440431 8.790055-52.085047 17.577039-30.404275 53.644424-55.404483 96.419282-66.798278 16.146672-4.297247 32.487881-6.509863 48.504519-6.509863 51.82498 0 92.775273 23.047659 101.956453 57.291503 5.728638 21.549714-1.237877 45.57416-19.791703 67.581551z" fill="#79CCBF" /><path d="M676.273185 400.352473c-23.370183-15.040875-47.657766-18.033692-70.575391-9.636809V280.622394c12.697202 13.087302 27.930568 26.107028 44.208297 39.91105 59.701729 50.651607 120.773417 102.803206 100.459532 184.964884-13.737469-40.30115-40.952341-83.855184-74.092438-105.145855z" fill="#FFFFFF" /><path d="M418.585822 725.816949c-23.960964 0-44.404883-6.446382-58.467947-14.843266-16.796839-9.963428-27.017262-23.700897-28.904283-38.607644-1.10682-9.116675 5.33649-17.450078 14.516646-18.620379 8.529989-0.976787 17.447006 5.33649 18.553826 14.516647 0.393172 3.190427 4.03718 8.853536 12.893788 14.064088 15.950086 9.503704 46.68098 15.820052 80.795815 2.473707 8.529989-3.32046 18.230278 0.910234 21.550738 9.506776 3.382917 8.526917-0.846753 18.227207-9.440222 21.547666-18.100245 7.096549-35.613803 9.962404-51.498361 9.962405zM358.557474 356.927448c44.14072-12.827235 90.69269-7.616683 130.99384 14.64668 8.070264 4.363799 11.067176 14.520742 6.573344 22.657558-4.359704 8.006783-14.583199 10.937143-22.591006 6.509863-32.554434-17.903659-70.118739-22.134353-105.665989-11.783896-35.613803 10.286976-65.108868 33.853744-83.012527 66.408178-4.426256 8.073336-14.583199 10.937143-22.591006 6.509863-8.073336-4.42728-11.003696-14.516646-6.576415-22.591006 22.138448-40.299103 58.729038-69.533076 102.869759-82.35724z" fill="#27323A" /><path d="M379.651559 417.08583c31.771162-8.269922 64.778153-3.713632 93.165374 12.824164 7.87675 4.623866 10.613595 14.843266 5.923176 22.787592-4.619771 7.943302-14.843266 10.613595-22.721039 5.989729-20.703985-12.043963-44.727407-15.363399-67.905099-9.310189-23.047659 5.989729-42.448238 20.703985-54.557729 41.277937-4.623866 8.006783-14.843266 10.677076-22.787592 6.05321-8.009855-4.619771-10.613595-14.906746-5.989729-22.851073 16.601277-28.257187 43.164958-48.437967 74.872638-56.77137z" fill="#27323A" /></svg>